<svg width="21" height="21" viewBox="0 0 21 21" fill="none" xmlns="http://www.w3.org/2000/svg">
<path d="M10.5 11.333C11.8807 11.333 13 10.2137 13 8.83301C13 7.4523 11.8807 6.33301 10.5 6.33301C9.11929 6.33301 8 7.4523 8 8.83301C8 10.2137 9.11929 11.333 10.5 11.333Z" stroke="#1E1E1E" stroke-width="1.5" stroke-linecap="round" stroke-linejoin="round"/>
<path d="M10.4987 2.1665C8.73059 2.1665 7.0349 2.86888 5.78465 4.11913C4.53441 5.36937 3.83203 7.06506 3.83203 8.83317C3.83203 10.4098 4.16703 11.4415 5.08203 12.5832L10.4987 18.8332L15.9154 12.5832C16.8304 11.4415 17.1654 10.4098 17.1654 8.83317C17.1654 7.06506 16.463 5.36937 15.2127 4.11913C13.9625 2.86888 12.2668 2.1665 10.4987 2.1665Z" stroke="#1E1E1E" stroke-width="1.5" stroke-linecap="round" stroke-linejoin="round"/>
</svg>
