<svg width="117" height="96" viewBox="0 0 117 96" fill="none" xmlns="http://www.w3.org/2000/svg">
<g clip-path="url(#clip0_0_93)">
<path d="M25.723 90.4861C25.5939 90.0747 25.2068 90.013 24.99 90.013C24.7732 90.013 24.386 90.0747 24.2518 90.4913L22.9613 94.4565C22.9613 94.4565 22.9509 94.4977 22.9509 94.5079C22.9509 94.5748 23.0129 94.6314 23.0955 94.6314H23.5084C23.5755 94.6314 23.6427 94.5799 23.6581 94.5234L24.1021 93.1399H25.8727L26.3218 94.5234C26.3425 94.5902 26.3992 94.6314 26.4663 94.6314H26.8793C26.9671 94.6314 27.0239 94.5851 27.0239 94.5079C27.0239 94.4925 27.0239 94.472 27.0135 94.4565L25.723 90.481V90.4861ZM24.99 90.5427C25.0416 90.5427 25.0777 90.5735 25.0984 90.6353L25.723 92.6102H24.2466L24.8712 90.6353C24.8919 90.5735 24.928 90.5427 24.9848 90.5427H24.99Z" fill="black"/>
<path d="M30.7045 91.1907C30.3741 91.1907 30.0592 91.2781 29.7443 91.4633V91.381C29.7443 91.2987 29.6772 91.237 29.5843 91.237H29.2539C29.1661 91.237 29.0939 91.2987 29.0939 91.381V94.4925C29.0939 94.5697 29.1661 94.6365 29.2539 94.6365H29.5946C29.6824 94.6365 29.7598 94.5697 29.7598 94.4925V91.9519C30.0902 91.7821 30.3792 91.705 30.6993 91.705C30.849 91.705 30.8696 91.6279 30.8696 91.5764V91.3244C30.8696 91.273 30.849 91.1907 30.6993 91.1907H30.7045Z" fill="black"/>
<path d="M34.8548 94.1942H34.4624C34.2095 94.1942 34.1114 94.1634 34.1114 93.8342V91.7307H34.8393C34.9322 91.7307 35.0045 91.6639 35.0045 91.5867V91.381C35.0045 91.2987 34.9322 91.237 34.8393 91.237H34.1114V90.5941C34.1114 90.5221 34.0546 90.4655 33.9824 90.4655H33.9566L33.59 90.517C33.5023 90.5324 33.4403 90.589 33.4403 90.661V91.237H32.7899C32.697 91.237 32.6299 91.2936 32.6299 91.3707V91.5353C32.6299 91.6073 32.6918 91.6587 32.7847 91.669L33.4403 91.7359V93.8445C33.4403 94.5491 33.781 94.6828 34.416 94.6828C34.5502 94.6828 34.736 94.6725 34.8754 94.652C34.9735 94.6365 35.0251 94.5954 35.0251 94.5234V94.3125C35.0251 94.2045 34.8961 94.2045 34.8548 94.2045V94.1942Z" fill="black"/>
<path d="M37.6527 91.2318H37.3172C37.2242 91.2318 37.152 91.2987 37.152 91.3759V94.4874C37.152 94.5697 37.2242 94.6314 37.3172 94.6314H37.6527C37.7456 94.6314 37.8179 94.5645 37.8179 94.4874V91.3759C37.8179 91.2936 37.7456 91.2318 37.6527 91.2318Z" fill="black"/>
<path d="M37.663 89.9667H37.3068C37.2139 89.9667 37.1416 90.0335 37.1416 90.1107V90.5993C37.1416 90.6816 37.2139 90.7433 37.3068 90.7433H37.663C37.7559 90.7433 37.8282 90.6764 37.8282 90.5993V90.1107C37.8282 90.0284 37.7559 89.9667 37.663 89.9667Z" fill="black"/>
<path d="M41.9476 92.8262L41.2559 92.4662C40.9462 92.3067 40.7862 92.1936 40.7862 92.0239C40.7862 91.7461 40.9978 91.6947 41.4108 91.6947C41.6999 91.6947 42.0612 91.7102 42.4948 91.7462H42.5155C42.6084 91.7462 42.66 91.6999 42.66 91.6176V91.417C42.66 91.3604 42.6342 91.2884 42.5051 91.273C42.149 91.2216 41.7824 91.1959 41.4108 91.1959C40.5435 91.1959 40.1202 91.4684 40.1202 92.029C40.1202 92.3787 40.3422 92.6565 40.8481 92.9239L41.5553 93.2891C41.9528 93.4948 42.0664 93.6028 42.0664 93.7725C42.0664 94.0657 41.8805 94.1839 41.4004 94.1839C41.1423 94.1839 40.6313 94.1531 40.3061 94.1171H40.2803C40.1925 94.1171 40.1306 94.1685 40.1306 94.2302V94.4411C40.1306 94.5131 40.1873 94.5645 40.2958 94.5851C40.6158 94.652 41.0907 94.6777 41.4056 94.6777C42.278 94.6777 42.7374 94.3639 42.7374 93.7725C42.7374 93.3868 42.5206 93.1193 41.958 92.8313L41.9476 92.8262Z" fill="black"/>
<path d="M46.289 91.1907C45.7986 91.1907 45.4785 91.2267 45.2049 91.2679C45.0914 91.2833 45.0346 91.3296 45.0346 91.4067V91.6176C45.0346 91.6639 45.0552 91.741 45.1843 91.741H45.2204C45.5095 91.7153 45.8399 91.6896 46.289 91.6896C46.8207 91.6896 47.0117 91.8644 47.0117 92.353V92.5742H46.5213C45.3237 92.5742 44.8126 92.8776 44.8126 93.5874V93.6594C44.8126 94.1222 45.0139 94.6725 45.9793 94.6725C46.3096 94.6725 46.6349 94.5851 47.0323 94.3897V94.4822C47.0323 94.5645 47.1046 94.6262 47.1975 94.6262H47.5176C47.6105 94.6262 47.6828 94.5594 47.6828 94.4822V92.353C47.6828 91.5662 47.2285 91.1804 46.2942 91.1804L46.289 91.1907ZM45.4785 93.5874C45.4785 93.1965 45.6334 93.0113 46.5213 93.0113H47.0117V93.9576C46.6607 94.1222 46.3871 94.1942 46.0928 94.1942C45.7212 94.1942 45.4734 94.1017 45.4734 93.6645V93.5925L45.4785 93.5874Z" fill="black"/>
<path d="M51.7764 91.1907C51.3944 91.1907 51.0898 91.2627 50.6923 91.453V91.3759C50.6923 91.2936 50.6252 91.2318 50.5323 91.2318H50.1813C50.0935 91.2318 50.0212 91.2936 50.0212 91.3759V94.4874C50.0212 94.5645 50.0935 94.6314 50.1813 94.6314H50.522C50.6097 94.6314 50.6872 94.5645 50.6872 94.4874V91.9313C51.0382 91.777 51.3479 91.6999 51.606 91.6999C52.1532 91.6999 52.3494 91.9056 52.3494 92.4816V94.4874C52.3494 94.5697 52.4216 94.6314 52.5146 94.6314H52.8501C52.943 94.6314 53.0153 94.5645 53.0153 94.4874V92.4816C53.0153 91.6227 52.5972 91.1907 51.7764 91.1907Z" fill="black"/>
<path d="M62.5756 90.0541H62.2194C62.1265 90.0541 62.0542 90.121 62.0542 90.1981V91.9416H59.7157V90.1981C59.7157 90.1158 59.6435 90.0541 59.5506 90.0541H59.1944C59.1014 90.0541 59.0292 90.121 59.0292 90.1981V94.4822C59.0292 94.5645 59.1014 94.6262 59.1944 94.6262H59.5506C59.6435 94.6262 59.7157 94.5594 59.7157 94.4822V92.4816H62.0542V94.4822C62.0542 94.5645 62.1265 94.6262 62.2194 94.6262H62.5756C62.6685 94.6262 62.7408 94.5594 62.7408 94.4822V90.1981C62.7408 90.1158 62.6685 90.0541 62.5756 90.0541Z" fill="black"/>
<path d="M66.6072 91.1907C65.6212 91.1907 65.0327 91.7307 65.0327 92.641V93.1913C65.0327 93.7468 65.2444 94.6777 66.6433 94.6777C67.0821 94.6777 67.4692 94.6468 67.8977 94.5748C68.0113 94.5542 68.0577 94.508 68.0577 94.4102V94.2045C68.0577 94.1376 68.0009 94.0965 67.9184 94.0965H67.8822C67.5828 94.1377 67.0769 94.1634 66.6433 94.1634C65.9826 94.1634 65.6986 93.8754 65.6986 93.1913V93.1296H68.0113C68.1042 93.1296 68.1713 93.0679 68.1713 92.9702V92.641C68.1713 91.7204 67.6035 91.1907 66.6072 91.1907ZM65.6986 92.641C65.6986 92.0239 66.0032 91.705 66.6072 91.705C67.2111 91.705 67.4951 91.9827 67.4951 92.641V92.6719H65.6935V92.641H65.6986Z" fill="black"/>
<path d="M72.0067 91.1907C71.6763 91.1907 71.3614 91.2781 71.0466 91.4633V91.381C71.0466 91.2987 70.9794 91.237 70.8865 91.237H70.5561C70.4684 91.237 70.3961 91.2987 70.3961 91.381V94.4925C70.3961 94.5697 70.4684 94.6365 70.5561 94.6365H70.8968C70.9846 94.6365 71.062 94.5697 71.062 94.4925V91.9519C71.3924 91.7821 71.6815 91.705 72.0015 91.705C72.1512 91.705 72.1719 91.6279 72.1719 91.5764V91.3244C72.1719 91.273 72.1512 91.1907 72.0015 91.1907H72.0067Z" fill="black"/>
<path d="M74.8305 89.9667H74.4743C74.3814 89.9667 74.3091 90.0335 74.3091 90.1107V90.5993C74.3091 90.6816 74.3814 90.7433 74.4743 90.7433H74.8305C74.9234 90.7433 74.9956 90.6764 74.9956 90.5993V90.1107C74.9956 90.0284 74.9234 89.9667 74.8305 89.9667Z" fill="black"/>
<path d="M74.8201 91.2318H74.4845C74.3916 91.2318 74.3193 91.2987 74.3193 91.3759V94.4874C74.3193 94.5697 74.3916 94.6314 74.4845 94.6314H74.8201C74.913 94.6314 74.9852 94.5645 74.9852 94.4874V91.3759C74.9852 91.2936 74.913 91.2318 74.8201 91.2318Z" fill="black"/>
<path d="M79.3318 94.1942H78.9395C78.6866 94.1942 78.5885 94.1634 78.5885 93.8342V91.7307H79.3163C79.4092 91.7307 79.4815 91.6639 79.4815 91.5867V91.381C79.4815 91.2987 79.4092 91.237 79.3163 91.237H78.5885V90.5941C78.5885 90.5221 78.5317 90.4655 78.4594 90.4655H78.4336L78.0671 90.517C77.9793 90.5324 77.9174 90.589 77.9174 90.661V91.237H77.267C77.174 91.237 77.1069 91.2936 77.1069 91.3707V91.5353C77.1069 91.6073 77.1689 91.6587 77.2618 91.669L77.9174 91.7359V93.8445C77.9174 94.5491 78.2581 94.6828 78.893 94.6828C79.0273 94.6828 79.2131 94.6725 79.3525 94.652C79.4506 94.6365 79.5022 94.5954 79.5022 94.5234V94.3125C79.5022 94.2045 79.3731 94.2045 79.3318 94.2045V94.1942Z" fill="black"/>
<path d="M82.8937 91.1907C82.4033 91.1907 82.0833 91.2267 81.8097 91.2679C81.6961 91.2833 81.6393 91.3296 81.6393 91.4067V91.6176C81.6393 91.6639 81.66 91.741 81.789 91.741H81.8252C82.1142 91.7153 82.4446 91.6896 82.8937 91.6896C83.4254 91.6896 83.6164 91.8644 83.6164 92.353V92.5742H83.126C81.9284 92.5742 81.4174 92.8776 81.4174 93.5874V93.6594C81.4174 94.1222 81.6187 94.6725 82.584 94.6725C82.9144 94.6725 83.2396 94.5851 83.6371 94.3897V94.4822C83.6371 94.5645 83.7093 94.6262 83.8023 94.6262H84.1223C84.2152 94.6262 84.2875 94.5594 84.2875 94.4822V92.353C84.2875 91.5662 83.8332 91.1804 82.8989 91.1804L82.8937 91.1907ZM82.0833 93.5874C82.0833 93.1965 82.2381 93.0113 83.126 93.0113H83.6164V93.9576C83.2654 94.1222 82.9918 94.1942 82.6976 94.1942C82.3259 94.1942 82.0781 94.1017 82.0781 93.6645V93.5925L82.0833 93.5874Z" fill="black"/>
<path d="M89.6717 91.2318H88.1437C86.7705 91.2318 86.5692 91.921 86.5692 92.3325V92.3787C86.5692 92.677 86.6673 92.9033 86.8738 93.0833C86.7086 93.1811 86.6054 93.3456 86.6054 93.5256C86.6054 93.7108 86.6931 93.9319 86.9409 94.0296H86.946C86.7396 94.1839 86.5331 94.4565 86.5331 94.8011V94.8577C86.5331 95.3103 86.817 95.8503 88.1643 95.8503C89.2535 95.8503 89.7852 95.5314 89.7852 94.8834V94.832C89.7852 94.2148 89.0316 94.0502 88.4224 93.9114L87.3797 93.6799C87.2145 93.6439 87.1835 93.5874 87.1835 93.5102C87.1835 93.4331 87.23 93.3713 87.3332 93.3302C87.5655 93.4125 87.8185 93.4485 88.1437 93.4485C89.1916 93.4485 89.7181 93.0885 89.7181 92.3839V92.3376C89.7181 92.0753 89.651 91.8747 89.5065 91.7256L89.713 91.6896C89.7852 91.6793 89.8575 91.6536 89.8575 91.5507V91.3913C89.8575 91.309 89.7697 91.2318 89.6717 91.2318ZM87.2248 92.3325C87.2248 91.777 87.7152 91.705 88.1437 91.705C88.5721 91.705 89.0625 91.777 89.0625 92.3325V92.3787C89.0625 92.677 88.9541 92.9753 88.1437 92.9753C87.5345 92.9753 87.2248 92.7748 87.2248 92.3787V92.3325ZM89.1142 94.8834C89.1142 95.1971 88.9541 95.3925 88.1643 95.3925C87.6791 95.3925 87.1835 95.3308 87.1835 94.8628V94.8062C87.1835 94.5182 87.3022 94.3639 87.5087 94.2096L88.2882 94.3845C88.9438 94.5285 89.1193 94.6262 89.1193 94.8371V94.8885L89.1142 94.8834Z" fill="black"/>
<path d="M93.4297 91.1907C92.4437 91.1907 91.8552 91.7307 91.8552 92.641V93.1913C91.8552 93.7468 92.0669 94.6777 93.4658 94.6777C93.9046 94.6777 94.2918 94.6468 94.7202 94.5748C94.8338 94.5542 94.8802 94.508 94.8802 94.4102V94.2045C94.8802 94.1376 94.8235 94.0965 94.7409 94.0965H94.7047C94.4053 94.1377 93.8994 94.1634 93.4658 94.1634C92.8051 94.1634 92.5211 93.8754 92.5211 93.1913V93.1296H94.8338C94.9267 93.1296 94.9938 93.0679 94.9938 92.9702V92.641C94.9938 91.7204 94.426 91.1907 93.4297 91.1907ZM92.5211 92.641C92.5211 92.0239 92.8257 91.705 93.4297 91.705C94.0337 91.705 94.3176 91.9827 94.3176 92.641V92.6719H92.516V92.641H92.5211Z" fill="black"/>
<path d="M111.255 57.6943C109.964 56.7531 107.533 54.3822 103.96 50.5866L84.3392 29.4643L100.419 14.6113C103.104 12.0706 105.21 10.4249 106.727 9.674C108.245 8.92312 110.32 8.41911 112.953 8.15681V6.63448H91.3648V8.15681C93.1664 8.15681 94.555 8.33168 95.5307 8.67626C96.5115 9.02084 97.0019 9.74086 97.0019 10.8363C97.0019 12.3844 94.1163 15.8868 88.345 21.3538C85.1238 24.3779 80.9734 28.0448 75.899 32.3547V15.5267C75.899 12.5901 76.3688 10.6666 77.3083 9.76143C78.2478 8.85112 80.323 8.32139 83.5442 8.15681V6.63448H60.0874V8.15681C63.2518 8.37282 65.2857 8.91284 66.1839 9.78201C67.0821 10.6512 67.5312 12.5747 67.5312 15.5422V51.1524C67.5312 54.6342 67.1286 56.8354 66.3233 57.756C65.5541 58.6406 63.6131 59.1446 60.5055 59.2218C55.8131 58.9903 52.2151 58.008 49.536 56.7531C48.7462 56.3828 47.9718 55.9354 47.213 55.4365C49.314 53.8885 51.1775 52.037 52.7623 49.8975C56.603 44.6825 58.5542 38.2177 58.5542 30.6832C58.5542 21.1583 55.4879 13.449 49.4431 7.77623C43.9454 2.61779 37.1726 0 29.3107 0C21.4487 0 14.5108 2.64351 9.04411 7.86366C3.08699 13.5673 0.0671387 21.2458 0.0671387 30.6832C0.0671387 39.4006 2.60691 46.5545 7.61419 51.9444C8.69825 53.1119 9.9733 54.2485 11.4239 55.3234L14.4798 57.3446H14.4902C15.6413 58.0337 16.8802 58.7023 18.1914 59.3349C20.566 60.2915 23.9988 61.2172 28.428 61.2172C30.5909 61.2172 32.9861 60.9961 35.6137 60.4509C37.4359 60.0704 39.1549 59.5715 40.7242 58.9698C40.9875 58.8669 41.2404 58.7486 41.5037 58.6406C42.6239 59.0675 43.8008 59.4378 45.0656 59.7309C48.55 60.5384 52.5455 60.9447 57.0469 60.9447H60.0874H83.3429V59.5406C80.2301 59.2732 78.2117 58.7332 77.2877 57.9154C76.3636 57.0977 75.899 55.1639 75.899 52.1141V37.256L78.4388 34.9108L94.3073 51.9907C95.4326 53.225 96.2585 54.3102 96.7851 55.2462C97.3065 56.1822 97.5697 56.8817 97.5697 57.3343C97.5697 58.1623 97.1671 58.7229 96.3618 59.0006C95.5565 59.2835 94.013 59.4635 91.7313 59.5406V60.9447H116.933V59.5406C114.434 59.2475 112.54 58.6303 111.249 57.6891L111.255 57.6943ZM29.3313 57.6017C24.1124 57.6017 19.642 55.4005 16.0543 51.0547C12.4511 46.6934 10.6289 39.8429 10.6289 30.6883C10.6289 21.5338 12.4614 14.637 16.0801 10.2757C19.6833 5.92989 24.1434 3.72868 29.3365 3.72868C34.5296 3.72868 38.7729 5.85275 42.4432 10.0443C46.129 14.2461 47.9977 21.1943 47.9977 30.6883C47.9977 40.1823 46.1496 46.9814 42.5051 51.2244C42.4587 51.2758 42.4122 51.3221 42.3709 51.3787C40.4558 49.4346 38.6593 47.47 37.0952 45.3768C36.228 44.2145 34.1992 41.3035 34.0289 41.0927C32.0053 38.5469 28.6603 37.9554 26.5593 39.7709C25.2068 40.9384 24.7061 42.8207 25.0571 44.6928C25.2016 45.6751 25.5888 46.6574 26.2186 47.5368C26.3683 47.7426 26.5283 47.9431 26.6986 48.1386C26.709 48.1489 27.3181 48.7815 27.6536 49.1003C28.3867 49.7998 29.161 50.6175 30.5393 51.8107C32.4131 53.4307 34.5709 55.1536 35.9337 55.9302C36.0421 55.992 36.1454 56.0485 36.2538 56.1102C34.1166 57.108 31.804 57.612 29.3365 57.612L29.3313 57.6017ZM32.6145 47.3774C31.2465 48.5603 29.0629 48.1746 27.7466 46.5134C26.4251 44.8522 26.4663 42.5481 27.8395 41.3652C29.2074 40.1823 31.391 40.5681 32.7074 42.2293C34.0289 43.8904 33.9876 46.1945 32.6145 47.3774Z" fill="black"/>
<path d="M68.4449 82.9568C68.0526 82.9105 67.7532 82.8127 67.557 82.6687C67.3505 82.5145 66.953 82.1287 66.3749 81.5064L63.2208 78.0863L65.7916 75.6948C66.2252 75.2834 66.5659 75.0159 66.8033 74.8977C67.0408 74.7794 67.3712 74.6971 67.7893 74.6559H67.8616V74.2445H64.1655V74.6559H64.2481C64.532 74.6559 64.7488 74.6817 64.9037 74.7382C65.0327 74.7845 65.0895 74.8719 65.0895 75.0211C65.0895 75.1497 64.9088 75.5405 63.6957 76.6926C63.2002 77.1606 62.5601 77.7315 61.8012 78.3846V75.7925C61.8012 75.3348 61.8683 75.0314 62.0077 74.8977C62.1006 74.8051 62.3484 74.6868 62.973 74.6559H63.0505V74.2445H59.0498V74.6508H59.1272C59.7415 74.6971 59.979 74.8102 60.0719 74.9028C60.1648 74.9954 60.2681 75.2165 60.2681 75.7925V81.6556C60.2681 82.3396 60.17 82.5967 60.0926 82.6893C60.01 82.7819 59.7828 82.9053 59.1272 82.9568H59.0498V83.3476H63.0195V82.9619H62.9421C62.4568 82.9156 62.1368 82.8282 62.0026 82.7099C61.9096 82.6276 61.8012 82.4064 61.8012 81.815V79.4029L62.1316 79.0995L64.6714 81.851C64.8521 82.0464 64.9811 82.2213 65.0637 82.3704C65.1618 82.5453 65.1824 82.6327 65.1824 82.679C65.1824 82.7819 65.136 82.8436 65.0379 82.8796C64.914 82.9207 64.6662 82.9516 64.3049 82.9619H64.2274V83.3528H68.512V82.9722L68.4397 82.9619L68.4449 82.9568Z" fill="black"/>
<path d="M75.326 74.2445V74.6405H75.3983C75.868 74.6919 76.1881 74.7999 76.3481 74.9697C76.4565 75.0828 76.5907 75.4068 76.5907 76.2708V79.7218C76.5907 80.5498 76.4875 81.1721 76.2862 81.563C75.9248 82.2573 75.2021 82.607 74.1335 82.607C73.1527 82.607 72.5023 82.2727 72.1564 81.5887C71.9706 81.2133 71.8725 80.6784 71.8725 79.9995V75.7565C71.8725 75.1805 71.9861 74.9594 72.079 74.8771C72.1771 74.7896 72.4197 74.6816 73.0392 74.6405H73.1114V74.2393H69.1211V74.6354H69.1934C69.8025 74.6868 70.0451 74.7999 70.138 74.8822C70.231 74.9645 70.3394 75.1805 70.3394 75.7514V79.8967C70.3394 80.7298 70.4891 81.4087 70.7781 81.9179C71.3202 82.8745 72.3423 83.3579 73.829 83.3579C75.3157 83.3579 76.3687 82.8693 76.9056 81.8973C77.1947 81.3727 77.3444 80.6424 77.3444 79.7167V76.2657C77.3444 75.592 77.4167 75.1599 77.5664 74.9851C77.7109 74.8102 78.0413 74.6971 78.5368 74.6405H78.6091V74.2393H75.326V74.2445Z" fill="black"/>
<path d="M89.5529 74.2445V74.6456H89.6304C89.8781 74.6559 90.064 74.6868 90.1879 74.7382C90.3892 74.8205 90.4873 74.9645 90.4873 75.1754C90.4873 75.2371 90.4769 75.3245 90.4563 75.4325C90.4202 75.628 90.3582 75.8491 90.2653 76.1011L88.6805 80.4058L86.8376 75.6228C86.7705 75.4428 86.7241 75.3245 86.7086 75.268C86.6931 75.2165 86.6879 75.1599 86.6879 75.0879C86.6879 74.8925 86.7654 74.7691 86.9306 74.7074C87.0493 74.6662 87.2713 74.6456 87.5913 74.6405H87.6739V74.2342H83.9572V74.6354H84.0346C84.303 74.6405 84.5043 74.6714 84.6334 74.7279C84.8502 74.8205 85.0051 75.0005 85.1135 75.2731L85.7226 76.8726L84.4063 80.3698L82.5634 75.5714C82.5169 75.4428 82.4808 75.34 82.4601 75.2577C82.4395 75.1857 82.4292 75.1085 82.4292 75.0262C82.4292 74.8668 82.5066 74.7588 82.6718 74.6971C82.775 74.6611 82.9557 74.6405 83.2138 74.6302H83.2912V74.2239H79.8739V74.6251H79.9513C80.3179 74.6508 80.576 74.7896 80.7463 75.0622C80.927 75.3502 81.247 76.1371 81.7065 77.4126L83.8333 83.3322H84.1482L86.1304 77.8703L88.1901 83.3322H88.5102L91.2977 75.3914C91.401 75.1034 91.561 74.8977 91.7675 74.7845C91.8862 74.7176 92.0566 74.6662 92.2837 74.6302L92.3508 74.6199V74.2239H89.5529V74.2445Z" fill="black"/>
<path d="M100.982 80.9047L100.961 80.951C100.631 81.6967 100.259 82.175 99.8566 82.3653C99.4436 82.5607 98.7932 82.6585 97.9156 82.6585C96.9038 82.6585 96.5631 82.6225 96.4547 82.5865C96.4083 82.571 96.2637 82.5299 96.2637 82.1904V78.9246H98.215C98.8758 78.9246 99.1287 79.0481 99.2216 79.1509C99.3662 79.3052 99.4849 79.6447 99.583 80.1538L99.5933 80.2207H100.048V76.9394H99.5933L99.583 77.0063C99.4901 77.5103 99.3713 77.8446 99.232 78.004C99.0926 78.1583 98.7519 78.2355 98.2202 78.2355H96.2689V75.2988C96.2689 75.0931 96.2999 75.0159 96.3205 74.9851C96.3308 74.9697 96.3825 74.9234 96.6096 74.9234H98.4009C99.1494 74.9234 99.6346 75.0057 99.8411 75.1702C100.048 75.3297 100.208 75.7051 100.311 76.276L100.321 76.3428H100.806L100.76 74.2496H93.6052V74.6559H93.6775C94.2557 74.7022 94.4828 74.8205 94.5705 74.9131C94.6583 75.0057 94.7615 75.232 94.7615 75.7977V81.8099C94.7615 82.4116 94.6583 82.6225 94.5757 82.6996C94.4467 82.8127 94.1421 82.895 93.6775 82.9465H93.6052V83.3579H100.863L101.503 80.915H100.982V80.9047Z" fill="black"/>
<path d="M108.364 74.2445V74.6508H108.441C109.03 74.7074 109.262 74.8257 109.355 74.9131C109.556 75.1188 109.659 75.5868 109.659 76.3017V80.5704L104.59 74.2702L104.564 74.2393H102.138V74.6508H102.216C102.479 74.6611 102.68 74.6919 102.809 74.7434C102.933 74.7948 103.093 74.9285 103.284 75.1548L103.449 75.3502V81.2904C103.449 81.9847 103.377 82.427 103.227 82.607C103.083 82.787 102.742 82.9002 102.21 82.9567H102.138V83.3682H105.473V82.9619L105.401 82.9516C104.936 82.9002 104.631 82.8076 104.508 82.679C104.306 82.4733 104.208 82.0053 104.208 81.2853V76.2451L110.036 83.4916L110.062 83.5225H110.413V76.312C110.413 75.4582 110.542 75.1291 110.651 75.0005C110.805 74.8205 111.136 74.7022 111.626 74.6508H111.698V74.2393H108.359L108.364 74.2445Z" fill="black"/>
<path d="M115.937 74.8874C116.035 74.7999 116.288 74.6868 116.928 74.6508H117V74.2393H112.953V74.6456H113.025C113.665 74.6816 113.918 74.7948 114.016 74.8822C114.114 74.9697 114.228 75.1959 114.228 75.7823V81.7944C114.228 82.4064 114.114 82.6225 114.021 82.6996C113.877 82.8127 113.541 82.8899 113.025 82.931H112.953V83.3425H117V82.9362H116.928C116.412 82.895 116.076 82.8179 115.931 82.6996C115.839 82.6276 115.725 82.4064 115.725 81.7944V75.7823C115.725 75.3091 115.797 75.0108 115.937 74.8822V74.8874Z" fill="black"/>
<path d="M16.6273 74.2445V80.411C16.6273 80.8481 16.6892 81.1978 16.8131 81.4601C17.0506 81.9487 17.4945 82.1904 18.1346 82.1904C18.5734 82.1904 19.2961 82.0464 19.7194 81.7584C19.9569 81.599 20.2046 81.3778 20.4473 81.095V75.8131C20.4473 75.3194 20.3492 74.9954 20.153 74.8411C19.9569 74.6868 19.5697 74.5942 18.9864 74.5634V74.2445H22.1301V81.0281C22.1301 81.4653 22.2075 81.7636 22.3676 81.9281C22.5276 82.0927 22.8631 82.1647 23.3742 82.1442V82.4167C23.018 82.5145 22.7547 82.5865 22.5844 82.6327C22.414 82.679 22.1353 82.7716 21.7378 82.9002C21.5674 82.9568 21.2009 83.0956 20.6279 83.3168C20.597 83.3168 20.5763 83.3013 20.5711 83.2756C20.566 83.2448 20.5608 83.2139 20.5608 83.1728V81.6196C20.122 82.139 19.7194 82.5247 19.3529 82.7767C18.8005 83.1625 17.9281 83.3528 17.3138 83.3528C16.7512 83.3528 16.2195 83.1522 15.7187 82.7562C15.2128 82.3653 14.9599 81.707 14.9599 80.7813V75.772C14.9599 75.2628 14.8515 74.9234 14.6295 74.7485C14.485 74.6405 14.1804 74.5634 13.7158 74.5171V74.2496H16.6273V74.2445Z" fill="black"/>
<path d="M40.8945 75.1651C41.5914 75.7822 41.9424 76.6514 41.9424 77.7829H35.5671C35.6343 79.2435 35.9801 80.3081 36.6047 80.9767C37.2294 81.6453 38.0708 81.9796 38.9277 81.9796C39.6194 81.9796 40.2027 81.8047 40.6777 81.4601C41.1526 81.1156 41.5914 80.6218 41.994 79.9892L42.3399 80.1024C42.0714 80.9047 41.5656 81.6504 40.8222 82.3293C40.0789 83.0133 39.1703 83.3528 38.0966 83.3528C36.8577 83.3528 35.8046 82.9053 35.1284 82.0104C34.4521 81.1156 34.1166 80.0818 34.1166 78.9143C34.1166 77.644 34.5089 76.5537 35.2935 75.628C36.0782 74.7074 37.1984 74.2445 38.4579 74.2445C39.3871 74.2445 40.2027 74.5531 40.8996 75.1651H40.8945ZM36.0627 75.8903C35.8511 76.2297 35.7014 76.6617 35.6084 77.176H39.8775C39.8053 76.5434 39.6814 76.0754 39.5007 75.7668C39.1806 75.2114 38.6386 74.9337 37.8798 74.9337C37.1209 74.9337 36.455 75.2525 36.0627 75.8903Z" fill="black"/>
<path d="M31.4168 75.1651C32.1137 75.7822 32.4647 76.6514 32.4647 77.7829H26.0895C26.1566 79.2435 26.5025 80.3081 27.1271 80.9767C27.7517 81.6453 28.5931 81.9796 29.45 81.9796C30.1418 81.9796 30.7251 81.8047 31.2 81.4601C31.6749 81.1156 32.1137 80.6218 32.5164 79.9892L32.8622 80.1024C32.5938 80.9047 32.0879 81.6504 31.3445 82.3293C30.6012 83.0133 29.6927 83.3528 28.6189 83.3528C27.38 83.3528 26.3269 82.9053 25.6507 82.0104C24.9745 81.1156 24.6389 80.0818 24.6389 78.9143C24.6389 77.644 25.0312 76.5537 25.8159 75.628C26.6005 74.7074 27.7207 74.2445 28.9803 74.2445C29.9095 74.2445 30.7251 74.5531 31.422 75.1651H31.4168ZM26.585 75.8903C26.3734 76.2297 26.2237 76.6617 26.1308 77.176H30.3999C30.3276 76.5434 30.2037 76.0754 30.023 75.7668C29.703 75.2114 29.161 74.9337 28.4021 74.9337C27.6433 74.9337 26.9774 75.2525 26.585 75.8903Z" fill="black"/>
<path d="M43.5943 83.0648C44.0537 83.0082 44.3789 82.895 44.5596 82.7202C44.7454 82.5505 44.8384 82.1699 44.8384 81.5784V76.6771C44.8384 76.2708 44.7971 75.9828 44.7196 75.8131C44.5957 75.5714 44.3428 75.448 43.9608 75.448C43.904 75.448 43.8421 75.448 43.7801 75.4582C43.7182 75.4685 43.6407 75.4737 43.553 75.4891V75.1497C43.8162 75.0725 44.446 74.8719 45.4423 74.5531L46.356 74.2548C46.4025 74.2548 46.4283 74.2702 46.4386 74.3011C46.4489 74.3319 46.4541 74.3782 46.4541 74.4348V75.8543C47.0477 75.2988 47.5175 74.9234 47.853 74.7176C48.3589 74.4039 49.2675 74.2445 49.8095 74.2445C50.2483 74.2445 50.6509 74.3679 51.0123 74.6199C51.7092 75.1085 52.0602 75.9828 52.0602 77.2377V81.7481C52.0602 82.211 52.1531 82.5453 52.3389 82.751C52.5248 82.9567 52.8397 83.0648 53.2733 83.0699V83.3425H49.1178V83.0699C49.5927 83.003 49.9231 82.8745 50.1089 82.679C50.2947 82.4836 50.3928 82.0567 50.3928 81.3984V77.2789C50.3928 76.7234 50.2896 76.2657 50.0831 75.9057C49.8766 75.5405 49.4946 75.3605 48.9423 75.3605C48.5603 75.3605 47.7911 75.4891 47.3936 75.7462C47.1716 75.8954 46.8929 76.1371 46.5419 76.4817V81.887C46.5419 82.3499 46.6451 82.6585 46.8516 82.8179C47.0581 82.9773 47.3885 83.0596 47.8324 83.075V83.3476H43.5788V83.075L43.5943 83.0648Z" fill="black"/>
<path d="M10.4068 82.4733C10.2365 82.3962 10.0713 82.3087 9.91128 82.2059C10.4068 81.8613 10.8353 81.4396 11.207 80.9458C12.0278 79.8298 12.4356 78.4669 12.4356 76.8571C12.4356 74.8205 11.7903 73.1953 10.4998 71.9816C9.32796 70.881 7.89805 70.3307 6.22035 70.3307C4.54265 70.3307 3.08176 70.8861 1.91512 72.0021C0.645233 73.221 0.00512695 74.8411 0.00512695 76.8571C0.00512695 78.7241 0.54199 80.231 1.61055 81.3778C1.84285 81.6247 2.11128 81.8664 2.41585 82.0927L3.07144 82.5247C3.31406 82.6687 3.57733 82.8127 3.85609 82.9465C4.59427 83.2448 5.84867 83.5379 7.55734 83.1831C7.93934 83.1008 8.30585 82.9979 8.64656 82.8693C8.65688 82.8693 8.6672 82.859 8.67753 82.859C8.92015 82.9465 9.17309 83.0236 9.45185 83.0853C10.2004 83.2499 11.0573 83.3322 12.0226 83.3322H12.7195V82.9208C11.7129 82.8745 10.985 82.7305 10.4068 82.4733ZM6.22551 82.6893C5.07951 82.6893 4.11936 82.2162 3.32955 81.2647C2.5449 80.3132 2.15258 78.8475 2.15258 76.8571C2.15258 74.8668 2.5449 73.3908 3.33471 72.4393C4.12452 71.4878 5.08468 71.0147 6.22551 71.0147C7.36634 71.0147 8.28004 71.4724 9.08018 72.3879C9.88547 73.3033 10.2881 74.7948 10.2881 76.8571C10.2881 78.9195 9.89063 80.375 9.09566 81.3007C9.0492 81.3521 9.00274 81.4036 8.95629 81.455C8.51234 81.0333 8.10453 80.5601 7.74318 80.0972C7.5367 79.8298 7.29407 79.5264 7.11856 79.3258C7.10308 79.3052 7.09275 79.2898 7.07726 79.2692C6.64364 78.7498 5.92611 78.6263 5.477 78.9966C5.15695 79.2589 5.05887 79.7012 5.18276 80.1178C5.22405 80.2772 5.29632 80.4315 5.40473 80.5755C5.4357 80.6167 5.47184 80.6578 5.50797 80.699C5.50797 80.699 5.64219 80.8327 5.71446 80.8944C5.86932 81.0384 6.03967 81.203 6.33392 81.4499C6.73656 81.7841 7.20116 82.1339 7.49024 82.2933C7.54702 82.3242 7.6038 82.355 7.66059 82.3859C7.21664 82.5813 6.73656 82.679 6.22551 82.679V82.6893ZM6.77786 80.5653C6.48362 80.807 6.01386 80.7298 5.73511 80.3904C5.45119 80.051 5.46151 79.5778 5.75576 79.3361C6.05 79.0944 6.51975 79.1715 6.79851 79.5109C7.08243 79.8504 7.0721 80.3235 6.77786 80.5653Z" fill="black"/>
</g>
<defs>
<clipPath id="clip0_0_93">
<rect width="117" height="95.8554" fill="white"/>
</clipPath>
</defs>
</svg>
