<svg width="100" height="192" viewBox="0 0 235 192" fill="none" xmlns="http://www.w3.org/2000/svg">
<g id="Layer_1" clip-path="url(#clip0_608_2874)">
<path id="Vector" d="M51.5252 181.245C51.2667 180.421 50.4912 180.297 50.0569 180.297C49.6226 180.297 48.8471 180.421 48.5783 181.255L45.9933 189.198C45.9933 189.198 45.9727 189.28 45.9727 189.301C45.9727 189.435 46.0967 189.548 46.2622 189.548H47.0894C47.2238 189.548 47.3582 189.445 47.3892 189.332L48.2784 186.561H51.825L52.7246 189.332C52.7659 189.466 52.8797 189.548 53.0141 189.548H53.8413C54.0171 189.548 54.1308 189.455 54.1308 189.301C54.1308 189.27 54.1308 189.229 54.1101 189.198L51.5252 181.235V181.245ZM50.0569 181.358C50.1603 181.358 50.2327 181.42 50.274 181.544L51.5252 185.5H48.568L49.8191 181.544C49.8604 181.42 49.9328 181.358 50.0466 181.358H50.0569Z" fill="#002E7E"/>
<path id="Vector_2" d="M61.5034 182.656C60.8416 182.656 60.2109 182.832 59.5802 183.202V183.038C59.5802 182.873 59.4457 182.749 59.2596 182.749H58.5979C58.4221 182.749 58.2773 182.873 58.2773 183.038V189.27C58.2773 189.425 58.4221 189.559 58.5979 189.559H59.2803C59.4561 189.559 59.6112 189.425 59.6112 189.27V184.181C60.2729 183.841 60.852 183.687 61.493 183.687C61.7929 183.687 61.8343 183.532 61.8343 183.429V182.924C61.8343 182.821 61.7929 182.656 61.493 182.656H61.5034Z" fill="#002E7E"/>
<path id="Vector_3" d="M69.8159 188.673H69.03C68.5234 188.673 68.3269 188.611 68.3269 187.952V183.738H69.7848C69.971 183.738 70.1157 183.604 70.1157 183.45V183.038C70.1157 182.873 69.971 182.749 69.7848 182.749H68.3269V181.462C68.3269 181.317 68.2132 181.204 68.0684 181.204H68.0167L67.2826 181.307C67.1068 181.338 66.9827 181.451 66.9827 181.596V182.749H65.6799C65.4938 182.749 65.3594 182.863 65.3594 183.017V183.347C65.3594 183.491 65.4835 183.594 65.6696 183.615L66.9827 183.749V187.972C66.9827 189.384 67.6652 189.651 68.937 189.651C69.2058 189.651 69.578 189.631 69.8572 189.59C70.0537 189.559 70.1571 189.476 70.1571 189.332V188.91C70.1571 188.693 69.8986 188.693 69.8159 188.693V188.673Z" fill="#002E7E"/>
<path id="Vector_4" d="M75.417 182.739H74.7449C74.5588 182.739 74.4141 182.873 74.4141 183.027V189.26C74.4141 189.425 74.5588 189.548 74.7449 189.548H75.417C75.6031 189.548 75.7479 189.414 75.7479 189.26V183.027C75.7479 182.863 75.6031 182.739 75.417 182.739Z" fill="#002E7E"/>
<path id="Vector_5" d="M75.4389 180.205H74.7254C74.5393 180.205 74.3945 180.339 74.3945 180.493V181.472C74.3945 181.637 74.5393 181.76 74.7254 181.76H75.4389C75.625 181.76 75.7697 181.626 75.7697 181.472V180.493C75.7697 180.328 75.625 180.205 75.4389 180.205Z" fill="#002E7E"/>
<path id="Vector_6" d="M84.0236 185.932L82.638 185.211C82.0177 184.892 81.6971 184.665 81.6971 184.325C81.6971 183.769 82.1211 183.666 82.9482 183.666C83.5273 183.666 84.2511 183.697 85.1196 183.769H85.161C85.3471 183.769 85.4505 183.676 85.4505 183.511V183.11C85.4505 182.996 85.3988 182.852 85.1403 182.821C84.4268 182.718 83.6927 182.667 82.9482 182.667C81.2111 182.667 80.3633 183.213 80.3633 184.336C80.3633 185.036 80.8079 185.592 81.8212 186.128L83.2378 186.859C84.0339 187.272 84.2614 187.488 84.2614 187.828C84.2614 188.415 83.8892 188.652 82.9276 188.652C82.4106 188.652 81.3869 188.59 80.7355 188.518H80.6838C80.508 188.518 80.384 188.621 80.384 188.745V189.167C80.384 189.311 80.4977 189.414 80.7148 189.455C81.3559 189.589 82.3072 189.641 82.9379 189.641C84.6853 189.641 85.6056 189.012 85.6056 187.828C85.6056 187.055 85.1713 186.52 84.0443 185.943L84.0236 185.932Z" fill="#002E7E"/>
<path id="Vector_7" d="M92.7189 182.657C91.7366 182.657 91.0956 182.729 90.5476 182.811C90.3201 182.842 90.2063 182.935 90.2063 183.089V183.512C90.2063 183.604 90.2477 183.759 90.5062 183.759H90.5786C91.1576 183.707 91.8194 183.656 92.7189 183.656C93.7839 183.656 94.1665 184.006 94.1665 184.985V185.428H93.1842C90.7854 185.428 89.7617 186.036 89.7617 187.457V187.601C89.7617 188.528 90.165 189.631 92.0985 189.631C92.7603 189.631 93.4117 189.456 94.2079 189.064V189.25C94.2079 189.414 94.3526 189.538 94.5387 189.538H95.1798C95.3659 189.538 95.5107 189.404 95.5107 189.25V184.985C95.5107 183.409 94.6008 182.636 92.7293 182.636L92.7189 182.657ZM91.0956 187.457C91.0956 186.674 91.4058 186.303 93.1842 186.303H94.1665V188.199C93.4634 188.528 92.9154 188.673 92.326 188.673C91.5815 188.673 91.0852 188.487 91.0852 187.612V187.467L91.0956 187.457Z" fill="#002E7E"/>
<path id="Vector_8" d="M103.707 182.656C102.942 182.656 102.332 182.801 101.536 183.182V183.027C101.536 182.863 101.401 182.739 101.215 182.739H100.512C100.336 182.739 100.191 182.863 100.191 183.027V189.26C100.191 189.414 100.336 189.548 100.512 189.548H101.194C101.37 189.548 101.525 189.414 101.525 189.26V184.14C102.228 183.831 102.849 183.676 103.366 183.676C104.462 183.676 104.855 184.088 104.855 185.242V189.26C104.855 189.425 104.999 189.548 105.186 189.548H105.858C106.044 189.548 106.189 189.414 106.189 189.26V185.242C106.189 183.522 105.351 182.656 103.707 182.656Z" fill="#002E7E"/>
<path id="Vector_9" d="M125.338 180.38H124.624C124.438 180.38 124.294 180.514 124.294 180.668V184.161H119.61V180.668C119.61 180.503 119.465 180.38 119.279 180.38H118.565C118.379 180.38 118.234 180.514 118.234 180.668V189.25C118.234 189.414 118.379 189.538 118.565 189.538H119.279C119.465 189.538 119.61 189.404 119.61 189.25V185.242H124.294V189.25C124.294 189.414 124.438 189.538 124.624 189.538H125.338C125.524 189.538 125.669 189.404 125.669 189.25V180.668C125.669 180.503 125.524 180.38 125.338 180.38Z" fill="#002E7E"/>
<path id="Vector_10" d="M133.415 182.656C131.44 182.656 130.262 183.738 130.262 185.562V186.664C130.262 187.776 130.686 189.641 133.488 189.641C134.367 189.641 135.142 189.579 136 189.435C136.228 189.394 136.321 189.301 136.321 189.105V188.693C136.321 188.559 136.207 188.477 136.042 188.477H135.969C135.37 188.559 134.356 188.611 133.488 188.611C132.164 188.611 131.596 188.034 131.596 186.664V186.54H136.228C136.414 186.54 136.548 186.417 136.548 186.221V185.562C136.548 183.718 135.411 182.656 133.415 182.656ZM131.596 185.562C131.596 184.325 132.206 183.687 133.415 183.687C134.625 183.687 135.194 184.243 135.194 185.562V185.623H131.585V185.562H131.596Z" fill="#002E7E"/>
<path id="Vector_11" d="M144.23 182.656C143.568 182.656 142.937 182.832 142.307 183.202V183.038C142.307 182.873 142.172 182.749 141.986 182.749H141.324C141.149 182.749 141.004 182.873 141.004 183.038V189.27C141.004 189.425 141.149 189.559 141.324 189.559H142.007C142.183 189.559 142.338 189.425 142.338 189.27V184.181C143 183.841 143.579 183.687 144.22 183.687C144.519 183.687 144.561 183.532 144.561 183.429V182.924C144.561 182.821 144.519 182.656 144.22 182.656H144.23Z" fill="#002E7E"/>
<path id="Vector_12" d="M149.888 180.205H149.175C148.989 180.205 148.844 180.339 148.844 180.493V181.472C148.844 181.637 148.989 181.76 149.175 181.76H149.888C150.074 181.76 150.219 181.626 150.219 181.472V180.493C150.219 180.328 150.074 180.205 149.888 180.205Z" fill="#002E7E"/>
<path id="Vector_13" d="M149.866 182.739H149.194C149.008 182.739 148.863 182.873 148.863 183.027V189.26C148.863 189.425 149.008 189.548 149.194 189.548H149.866C150.052 189.548 150.197 189.414 150.197 189.26V183.027C150.197 182.863 150.052 182.739 149.866 182.739Z" fill="#002E7E"/>
<path id="Vector_14" d="M158.902 188.673H158.116C157.609 188.673 157.413 188.611 157.413 187.952V183.738H158.871C159.057 183.738 159.202 183.604 159.202 183.45V183.038C159.202 182.873 159.057 182.749 158.871 182.749H157.413V181.462C157.413 181.317 157.299 181.204 157.154 181.204H157.103L156.369 181.307C156.193 181.338 156.069 181.451 156.069 181.596V182.749H154.766C154.58 182.749 154.445 182.863 154.445 183.017V183.347C154.445 183.491 154.569 183.594 154.756 183.615L156.069 183.749V187.972C156.069 189.384 156.751 189.651 158.023 189.651C158.292 189.651 158.664 189.631 158.943 189.59C159.14 189.559 159.243 189.476 159.243 189.332V188.91C159.243 188.693 158.985 188.693 158.902 188.693V188.673Z" fill="#002E7E"/>
<path id="Vector_15" d="M166.039 182.657C165.057 182.657 164.416 182.729 163.868 182.811C163.64 182.842 163.527 182.935 163.527 183.089V183.512C163.527 183.604 163.568 183.759 163.827 183.759H163.899C164.478 183.707 165.14 183.656 166.039 183.656C167.104 183.656 167.487 184.006 167.487 184.985V185.428H166.505C164.106 185.428 163.082 186.036 163.082 187.457V187.601C163.082 188.528 163.485 189.631 165.419 189.631C166.081 189.631 166.732 189.456 167.528 189.064V189.25C167.528 189.414 167.673 189.538 167.859 189.538H168.5C168.686 189.538 168.831 189.404 168.831 189.25V184.985C168.831 183.409 167.921 182.636 166.05 182.636L166.039 182.657ZM164.416 187.457C164.416 186.674 164.726 186.303 166.505 186.303H167.487V188.199C166.784 188.528 166.236 188.673 165.646 188.673C164.902 188.673 164.406 188.487 164.406 187.612V187.467L164.416 187.457Z" fill="#002E7E"/>
<path id="Vector_16" d="M179.615 182.739H176.554C173.804 182.739 173.4 184.119 173.4 184.944V185.036C173.4 185.634 173.597 186.087 174.011 186.448C173.68 186.643 173.473 186.973 173.473 187.334C173.473 187.704 173.649 188.147 174.145 188.343H174.155C173.742 188.652 173.328 189.198 173.328 189.888V190.002C173.328 190.908 173.897 191.99 176.596 191.99C178.777 191.99 179.842 191.351 179.842 190.053V189.95C179.842 188.714 178.333 188.384 177.113 188.106L175.024 187.643C174.693 187.57 174.631 187.457 174.631 187.303C174.631 187.148 174.724 187.024 174.931 186.942C175.396 187.107 175.903 187.179 176.554 187.179C178.653 187.179 179.708 186.458 179.708 185.047V184.954C179.708 184.428 179.573 184.027 179.284 183.728L179.697 183.656C179.842 183.635 179.987 183.584 179.987 183.378V183.058C179.987 182.894 179.811 182.739 179.615 182.739ZM174.714 184.944C174.714 183.831 175.696 183.687 176.554 183.687C177.412 183.687 178.395 183.831 178.395 184.944V185.036C178.395 185.634 178.178 186.231 176.554 186.231C175.334 186.231 174.714 185.829 174.714 185.036V184.944ZM178.498 190.053C178.498 190.682 178.178 191.073 176.596 191.073C175.624 191.073 174.631 190.949 174.631 190.012V189.899C174.631 189.322 174.869 189.013 175.282 188.704L176.844 189.054C178.157 189.342 178.508 189.538 178.508 189.96V190.063L178.498 190.053Z" fill="#002E7E"/>
<path id="Vector_17" d="M187.142 182.656C185.167 182.656 183.988 183.738 183.988 185.562V186.664C183.988 187.776 184.412 189.641 187.214 189.641C188.093 189.641 188.869 189.579 189.727 189.435C189.954 189.394 190.047 189.301 190.047 189.105V188.693C190.047 188.559 189.934 188.477 189.768 188.477H189.696C189.096 188.559 188.083 188.611 187.214 188.611C185.891 188.611 185.322 188.034 185.322 186.664V186.54H189.954C190.141 186.54 190.275 186.417 190.275 186.221V185.562C190.275 183.718 189.138 182.656 187.142 182.656ZM185.322 185.562C185.322 184.325 185.932 183.687 187.142 183.687C188.352 183.687 188.92 184.243 188.92 185.562V185.623H185.312V185.562H185.322Z" fill="#002E7E"/>
<path id="Vector_18" d="M222.843 115.563C220.258 113.677 215.388 108.928 208.233 101.326L168.931 59.0175L201.14 29.2667C206.516 24.1777 210.735 20.8812 213.775 19.3772C216.815 17.8732 220.972 16.8636 226.245 16.3382V13.289H183.004V16.3382C186.612 16.3382 189.394 16.6885 191.348 17.3787C193.312 18.0689 194.295 19.5111 194.295 21.7053C194.295 24.8061 188.515 31.8214 176.955 42.772C170.503 48.8293 162.189 56.1743 152.025 64.807V31.1003C152.025 25.2182 152.966 21.3654 154.848 19.5523C156.73 17.7289 160.887 16.6679 167.339 16.3382V13.289H120.354V16.3382C126.693 16.7709 130.767 17.8526 132.566 19.5935C134.365 21.3345 135.264 25.1873 135.264 31.1312V102.459C135.264 109.433 134.458 113.842 132.845 115.686C131.304 117.458 127.417 118.468 121.192 118.622C111.793 118.159 104.586 116.191 99.2197 113.677C97.6377 112.936 96.0867 112.039 94.5668 111.04C98.7751 107.939 102.508 104.231 105.682 99.9455C113.375 89.4997 117.283 76.5507 117.283 61.459C117.283 42.3805 111.142 26.9385 99.0336 15.5759C88.0216 5.24348 74.4557 0 58.7081 0C42.9605 0 29.0637 5.29499 18.1138 15.751C6.18163 27.1754 0.132812 42.5556 0.132812 61.459C0.132812 78.9201 5.22002 93.2495 15.2497 104.045C17.4211 106.384 19.975 108.661 22.8805 110.814L29.0017 114.862H29.0224C31.3282 116.243 33.8097 117.582 36.4361 118.849C41.1924 120.765 48.0684 122.619 56.94 122.619C61.2724 122.619 66.0701 122.176 71.3331 121.084C74.9831 120.322 78.4262 119.323 81.5696 118.117C82.0969 117.911 82.6035 117.674 83.1309 117.458C85.3746 118.313 87.7321 119.055 90.2654 119.642C97.2448 121.259 105.248 122.073 114.264 122.073H120.354H166.935V119.261C160.701 118.725 156.658 117.644 154.807 116.006C152.956 114.368 152.025 110.494 152.025 104.385V74.6243L157.113 69.9268L188.897 104.138C191.151 106.611 192.806 108.784 193.86 110.659C194.905 112.534 195.432 113.935 195.432 114.842C195.432 116.5 194.626 117.623 193.013 118.179C191.4 118.746 188.308 119.106 183.738 119.261V122.073H234.217V119.261C229.212 118.674 225.418 117.437 222.833 115.552L222.843 115.563ZM58.7495 115.377C48.2959 115.377 39.3416 110.968 32.1554 102.263C24.9381 93.5276 21.2882 79.806 21.2882 61.4692C21.2882 43.1325 24.9588 29.3182 32.2071 20.5825C39.4243 11.8777 48.3579 7.46861 58.7598 7.46861C69.1617 7.46861 77.6611 11.7231 85.0127 20.1189C92.3954 28.5352 96.1384 42.4526 96.1384 61.4692C96.1384 80.4859 92.4368 94.1045 85.1368 102.603C85.0437 102.706 84.9507 102.799 84.868 102.912C81.0319 99.0183 77.4336 95.0832 74.3006 90.8904C72.5635 88.5623 68.5 82.7316 68.1588 82.3093C64.1055 77.21 57.4053 76.0253 53.197 79.6618C50.4879 82.0002 49.485 85.7706 50.1881 89.5203C50.4776 91.4879 51.2531 93.4555 52.5145 95.2171C52.8144 95.6291 53.1349 96.0309 53.4762 96.4224C53.4968 96.443 54.7169 97.7101 55.389 98.3487C56.8573 99.7498 58.4083 101.388 61.169 103.778C64.9224 107.023 69.2444 110.474 71.9742 112.029C72.1913 112.153 72.3981 112.266 72.6152 112.39C68.3345 114.388 63.7023 115.398 58.7598 115.398L58.7495 115.377ZM65.3256 94.8977C62.5856 97.2671 58.2118 96.4945 55.5751 93.1671C52.9281 89.8397 53.0109 85.2246 55.7613 82.8552C58.5013 80.4859 62.8751 81.2585 65.5117 84.5859C68.1588 87.9133 68.076 92.5284 65.3256 94.8977Z" fill="#002E7E"/>
<path id="Vector_19" d="M137.096 166.164C136.31 166.071 135.71 165.875 135.317 165.587C134.904 165.278 134.108 164.505 132.95 163.259L126.632 156.408L131.781 151.618C132.65 150.794 133.332 150.258 133.808 150.021C134.283 149.784 134.945 149.619 135.783 149.537H135.927V148.713H128.524V149.537H128.69C129.258 149.537 129.693 149.589 130.003 149.702C130.261 149.795 130.375 149.97 130.375 150.268C130.375 150.526 130.013 151.309 127.583 153.616C126.591 154.554 125.308 155.697 123.788 157.006V151.814C123.788 150.897 123.923 150.289 124.202 150.021C124.388 149.836 124.885 149.599 126.136 149.537H126.291V148.713H118.277V149.527H118.432C119.663 149.619 120.139 149.846 120.325 150.031C120.511 150.217 120.718 150.66 120.718 151.814V163.557C120.718 164.928 120.521 165.443 120.366 165.628C120.201 165.813 119.746 166.061 118.432 166.164H118.277V166.947H126.229V166.174H126.074C125.102 166.081 124.461 165.906 124.192 165.669C124.006 165.504 123.788 165.061 123.788 163.877V159.045L124.45 158.438L129.537 163.949C129.899 164.34 130.158 164.691 130.323 164.989C130.52 165.34 130.561 165.515 130.561 165.607C130.561 165.813 130.468 165.937 130.272 166.009C130.023 166.092 129.527 166.153 128.803 166.174H128.648V166.957H137.23V166.195L137.086 166.174L137.096 166.164Z" fill="#002E7E"/>
<path id="Vector_20" d="M150.878 148.713V149.506H151.022C151.963 149.609 152.604 149.826 152.925 150.165C153.142 150.392 153.411 151.041 153.411 152.772V159.684C153.411 161.343 153.204 162.589 152.801 163.372C152.077 164.763 150.63 165.463 148.489 165.463C146.525 165.463 145.222 164.794 144.529 163.424C144.157 162.672 143.96 161.6 143.96 160.24V151.742C143.96 150.588 144.188 150.145 144.374 149.98C144.57 149.805 145.056 149.589 146.297 149.506H146.442V148.703H138.449V149.496H138.594C139.814 149.599 140.3 149.826 140.486 149.99C140.672 150.155 140.889 150.588 140.889 151.731V160.034C140.889 161.703 141.189 163.063 141.768 164.083C142.854 165.999 144.901 166.967 147.879 166.967C150.857 166.967 152.966 165.989 154.042 164.042C154.621 162.991 154.921 161.528 154.921 159.674V152.761C154.921 151.412 155.065 150.547 155.365 150.196C155.655 149.846 156.317 149.619 157.309 149.506H157.454V148.703H150.878V148.713Z" fill="#002E7E"/>
<path id="Vector_21" d="M179.376 148.713V149.517H179.531C180.027 149.537 180.399 149.599 180.647 149.702C181.051 149.867 181.247 150.155 181.247 150.578C181.247 150.701 181.226 150.876 181.185 151.093C181.113 151.484 180.989 151.927 180.802 152.432L177.628 161.054L173.937 151.474C173.802 151.113 173.709 150.876 173.678 150.763C173.647 150.66 173.637 150.547 173.637 150.403C173.637 150.011 173.792 149.764 174.123 149.64C174.361 149.558 174.805 149.517 175.446 149.506H175.612V148.692H168.167V149.496H168.322C168.86 149.506 169.263 149.568 169.522 149.681C169.956 149.867 170.266 150.227 170.483 150.773L171.703 153.977L169.067 160.982L165.375 151.371C165.282 151.113 165.21 150.907 165.169 150.742C165.127 150.598 165.107 150.444 165.107 150.279C165.107 149.96 165.262 149.743 165.592 149.62C165.799 149.548 166.161 149.506 166.678 149.486H166.833V148.672H159.988V149.475H160.143C160.878 149.527 161.395 149.805 161.736 150.351C162.098 150.928 162.739 152.504 163.659 155.059L167.919 166.916H168.55L172.52 155.976L176.646 166.916H177.287L182.87 151.01C183.077 150.433 183.398 150.021 183.811 149.795C184.049 149.661 184.39 149.558 184.845 149.486L184.98 149.465V148.672H179.376V148.713Z" fill="#002E7E"/>
<path id="Vector_22" d="M202.268 162.053L202.226 162.146C201.565 163.64 200.82 164.598 200.014 164.979C199.187 165.37 197.884 165.566 196.126 165.566C194.099 165.566 193.417 165.494 193.2 165.422C193.107 165.391 192.817 165.309 192.817 164.629V158.087H196.726C198.049 158.087 198.556 158.334 198.742 158.541C199.031 158.85 199.269 159.529 199.466 160.549L199.486 160.683H200.396V154.111H199.486L199.466 154.245C199.28 155.254 199.042 155.924 198.763 156.243C198.483 156.552 197.801 156.707 196.736 156.707H192.828V150.825C192.828 150.413 192.89 150.258 192.931 150.196C192.952 150.165 193.055 150.073 193.51 150.073H197.098C198.597 150.073 199.569 150.237 199.983 150.567C200.396 150.886 200.717 151.638 200.924 152.782L200.944 152.916H201.916L201.823 148.723H187.492V149.537H187.637C188.795 149.63 189.25 149.867 189.426 150.052C189.602 150.237 189.808 150.691 189.808 151.824V163.866C189.808 165.072 189.602 165.494 189.436 165.649C189.178 165.875 188.568 166.04 187.637 166.143H187.492V166.967H202.03L203.312 162.074H202.268V162.053Z" fill="#002E7E"/>
<path id="Vector_23" d="M217.056 148.713V149.527H217.211C218.39 149.64 218.855 149.877 219.041 150.052C219.444 150.464 219.651 151.402 219.651 152.834V161.384L209.497 148.764L209.446 148.703H204.586V149.527H204.741C205.268 149.547 205.672 149.609 205.93 149.712C206.178 149.815 206.499 150.083 206.881 150.536L207.212 150.928V162.826C207.212 164.217 207.068 165.103 206.768 165.463C206.478 165.824 205.796 166.05 204.731 166.164H204.586V166.988H211.265V166.174L211.121 166.153C210.19 166.05 209.58 165.865 209.332 165.607C208.929 165.195 208.732 164.258 208.732 162.816V152.72L220.406 167.235L220.458 167.297H221.161V152.854C221.161 151.144 221.419 150.485 221.636 150.227C221.947 149.867 222.608 149.63 223.591 149.527H223.735V148.703H217.045L217.056 148.713Z" fill="#002E7E"/>
<path id="Vector_24" d="M232.223 150.001C232.419 149.825 232.926 149.599 234.208 149.527H234.353V148.703H226.246V149.516H226.391C227.673 149.589 228.18 149.815 228.376 149.99C228.573 150.165 228.8 150.619 228.8 151.793V163.836C228.8 165.061 228.573 165.494 228.386 165.649C228.097 165.875 227.425 166.03 226.391 166.112H226.246V166.936H234.353V166.123H234.208C233.174 166.04 232.502 165.886 232.212 165.649C232.026 165.504 231.799 165.061 231.799 163.836V151.793C231.799 150.845 231.943 150.248 232.223 149.99V150.001Z" fill="#002E7E"/>
<path id="Vector_25" d="M33.3043 148.713V161.064C33.3043 161.94 33.4284 162.641 33.6766 163.166C34.1522 164.145 35.0414 164.629 36.3236 164.629C37.2025 164.629 38.65 164.34 39.4979 163.763C39.9735 163.444 40.4699 163.001 40.9558 162.435V151.855C40.9558 150.866 40.7594 150.217 40.3665 149.908C39.9735 149.599 39.1981 149.413 38.0297 149.352V148.713H44.3266V162.301C44.3266 163.176 44.4817 163.774 44.8023 164.103C45.1228 164.433 45.7949 164.577 46.8185 164.536V165.082C46.1051 165.278 45.5778 165.422 45.2365 165.515C44.8953 165.607 44.337 165.793 43.5408 166.05C43.1996 166.164 42.4655 166.442 41.3177 166.885C41.2557 166.885 41.2143 166.854 41.204 166.802C41.1937 166.741 41.1833 166.679 41.1833 166.596V163.485C40.3044 164.526 39.4979 165.298 38.7638 165.803C37.6574 166.576 35.91 166.957 34.6795 166.957C33.5525 166.957 32.4875 166.555 31.4845 165.762C30.4712 164.979 29.9646 163.66 29.9646 161.806V151.772C29.9646 150.753 29.7474 150.073 29.3028 149.722C29.0133 149.506 28.4032 149.352 27.4727 149.259V148.723H33.3043V148.713Z" fill="#002E7E"/>
<path id="Vector_26" d="M81.9122 150.557C83.3081 151.793 84.0112 153.534 84.0112 155.8H71.2414C71.3759 158.726 72.0686 160.858 73.3198 162.198C74.5709 163.537 76.2563 164.206 77.9727 164.206C79.3582 164.206 80.5266 163.856 81.4779 163.166C82.4292 162.476 83.3081 161.487 84.1146 160.22L84.8073 160.446C84.2697 162.053 83.2564 163.547 81.7674 164.907C80.2785 166.277 78.4587 166.957 76.308 166.957C73.8264 166.957 71.7171 166.061 70.3626 164.268C69.008 162.476 68.3359 160.405 68.3359 158.067C68.3359 155.522 69.1218 153.338 70.6934 151.484C72.2651 149.64 74.5088 148.713 77.0318 148.713C78.8929 148.713 80.5266 149.331 81.9225 150.557H81.9122ZM72.2341 152.009C71.8101 152.689 71.5103 153.555 71.3242 154.585H79.8752C79.7305 153.318 79.4823 152.38 79.1204 151.762C78.4793 150.65 77.3937 150.093 75.8737 150.093C74.3537 150.093 73.0199 150.732 72.2341 152.009Z" fill="#002E7E"/>
<path id="Vector_27" d="M62.9278 150.557C64.3237 151.793 65.0268 153.534 65.0268 155.8H52.2571C52.3915 158.726 53.0843 160.858 54.3354 162.198C55.5865 163.537 57.2719 164.206 58.9883 164.206C60.3739 164.206 61.5423 163.856 62.4935 163.166C63.4448 162.476 64.3237 161.487 65.1302 160.22L65.823 160.446C65.2853 162.053 64.272 163.547 62.783 164.907C61.2941 166.277 59.4743 166.957 57.3236 166.957C54.842 166.957 52.7327 166.061 51.3782 164.268C50.0237 162.476 49.3516 160.405 49.3516 158.067C49.3516 155.522 50.1374 153.338 51.709 151.484C53.2807 149.64 55.5245 148.713 58.0474 148.713C59.9086 148.713 61.5423 149.331 62.9381 150.557H62.9278ZM53.2497 152.009C52.8258 152.689 52.5259 153.555 52.3398 154.585H60.8908C60.7461 153.318 60.4979 152.38 60.136 151.762C59.495 150.65 58.4093 150.093 56.8893 150.093C55.3694 150.093 54.0355 150.732 53.2497 152.009Z" fill="#002E7E"/>
<path id="Vector_28" d="M87.321 166.38C88.2412 166.267 88.8927 166.04 89.2546 165.69C89.6268 165.35 89.8129 164.588 89.8129 163.403V153.586C89.8129 152.772 89.7302 152.195 89.5751 151.855C89.3269 151.371 88.8203 151.123 88.0551 151.123C87.9414 151.123 87.8173 151.123 87.6932 151.144C87.5692 151.165 87.4141 151.175 87.2383 151.206V150.526C87.7656 150.371 89.0271 149.97 91.0227 149.331L92.8528 148.733C92.9459 148.733 92.9976 148.764 93.0183 148.826C93.0389 148.888 93.0493 148.981 93.0493 149.094V151.937C94.2384 150.825 95.1793 150.073 95.8514 149.661C96.8647 149.032 98.6845 148.713 99.7702 148.713C100.649 148.713 101.456 148.96 102.179 149.465C103.575 150.444 104.278 152.195 104.278 154.708V163.743C104.278 164.67 104.464 165.34 104.837 165.752C105.209 166.164 105.84 166.38 106.708 166.39V166.936H98.3847V166.39C99.3359 166.256 99.9977 165.999 100.37 165.607C100.742 165.216 100.939 164.361 100.939 163.042V154.791C100.939 153.678 100.732 152.761 100.318 152.04C99.9046 151.309 99.1395 150.948 98.0331 150.948C97.2679 150.948 95.7273 151.206 94.9311 151.721C94.4865 152.02 93.9282 152.504 93.2251 153.194V164.021C93.2251 164.948 93.4319 165.566 93.8455 165.886C94.259 166.205 94.9208 166.37 95.81 166.401V166.947H87.29V166.401L87.321 166.38Z" fill="#002E7E"/>
<path id="Vector_29" d="M20.8465 165.195C20.5053 165.041 20.1744 164.866 19.8539 164.66C20.8465 163.97 21.7047 163.125 22.4492 162.136C24.0933 159.9 24.9101 157.171 24.9101 153.946C24.9101 149.867 23.6176 146.611 21.0327 144.18C18.6855 141.976 15.8214 140.874 12.4609 140.874C9.10046 140.874 6.17428 141.986 3.83747 144.222C1.29386 146.663 0.0117188 149.908 0.0117188 153.946C0.0117188 157.686 1.08706 160.704 3.22742 163.001C3.69271 163.496 4.23038 163.98 4.84043 164.433L6.1536 165.298C6.63957 165.587 7.1669 165.875 7.72525 166.143C9.20385 166.741 11.7164 167.328 15.1389 166.617C15.9041 166.452 16.6382 166.246 17.3206 165.989C17.3413 165.989 17.362 165.968 17.3827 165.968C17.8687 166.143 18.3753 166.298 18.9337 166.421C20.4329 166.751 22.1494 166.916 24.0829 166.916H25.4788V166.092C23.4625 165.999 22.0046 165.711 20.8465 165.195ZM12.4713 165.628C10.1758 165.628 8.25259 164.68 6.67059 162.775C5.09893 160.869 4.3131 157.933 4.3131 153.946C4.3131 149.959 5.09893 147.003 6.68093 145.097C8.26293 143.191 10.1861 142.244 12.4713 142.244C14.7564 142.244 16.5865 143.16 18.1892 144.994C19.8022 146.828 20.6087 149.815 20.6087 153.946C20.6087 158.077 19.8126 160.992 18.2202 162.847C18.1272 162.95 18.0341 163.053 17.941 163.156C17.0518 162.311 16.235 161.363 15.5112 160.436C15.0976 159.9 14.6116 159.293 14.26 158.891C14.229 158.85 14.2083 158.819 14.1773 158.778C13.3088 157.737 11.8715 157.49 10.972 158.232C10.3309 158.757 10.1344 159.643 10.3826 160.477C10.4653 160.797 10.6101 161.106 10.8272 161.394C10.8893 161.477 10.9616 161.559 11.034 161.641C11.034 161.641 11.3028 161.909 11.4476 162.033C11.7578 162.321 12.099 162.651 12.6884 163.145C13.4949 163.815 14.4255 164.516 15.0045 164.835C15.1183 164.897 15.232 164.959 15.3457 165.02C14.4565 165.412 13.4949 165.608 12.4713 165.608V165.628ZM13.5776 161.374C12.9882 161.858 12.0473 161.703 11.489 161.023C10.9203 160.343 10.941 159.396 11.5303 158.912C12.1197 158.427 13.0606 158.582 13.619 159.262C14.1877 159.942 14.167 160.889 13.5776 161.374Z" fill="#002E7E"/>
</g>
<defs>
<clipPath id="clip0_608_2874">
<rect width="234.353" height="192" fill="white"/>
</clipPath>
</defs>
</svg>
